<?xml version="1.0" encoding="utf-8"?>
<!-- Generator: Adobe Illustrator 16.0.0, SVG Export Plug-In . SVG Version: 6.00 Build 0)  -->
<!DOCTYPE svg PUBLIC "-//W3C//DTD SVG 1.1//EN" "http://www.w3.org/Graphics/SVG/1.1/DTD/svg11.dtd">
<svg version="1.1" id="Layer_1" xmlns="http://www.w3.org/2000/svg" xmlns:xlink="http://www.w3.org/1999/xlink" x="0px" y="0px"
	 width="512px" height="512px" viewBox="0 0 512 512" enable-background="new 0 0 512 512" xml:space="preserve">
<path fill="#231F20" d="M409,132.65h-74.63V53c0-7.18-5.82-13-13-13H77c-7.18,0-13,5.82-13,13v270.16c0,21.51,17.5,39,39,39h12
	c21.51,0,39-17.49,39-39V171.65c0-7.16,5.83-13,13-13h12c7.17,0,13,5.84,13,13V459c0,5.19,3.08,9.88,7.84,11.93
	c4.77,2.061,10.29,1.09,14.07-2.47l29.42-27.7l29.42,27.7c5.01,4.72,12.82,4.72,17.83,0l29.42-27.7l29.42,27.7
	c5,4.72,12.82,4.72,17.82,0l29.42-27.7l29.42,27.7c2.46,2.32,5.67,3.54,8.92,3.54c1.74,0,3.49-0.35,5.15-1.07
	c4.76-2.05,7.85-6.739,7.85-11.93V171.65C448,150.15,430.5,132.65,409,132.65z M259.37,329.44c-7.18,0-13-5.82-13-13
	c0-7.181,5.82-13,13-13h119c7.18,0,13,5.819,13,13c0,7.18-5.82,13-13,13H259.37z M331.37,370.16c0,7.18-5.82,13-13,13h-59
	c-7.18,0-13-5.82-13-13s5.82-13,13-13h59C325.55,357.16,331.37,362.98,331.37,370.16z M378.37,275.72h-119c-7.18,0-13-5.819-13-13
	c0-7.18,5.82-13,13-13h119c7.18,0,13,5.82,13,13C391.37,269.9,385.55,275.72,378.37,275.72z M378.37,222h-119c-7.18,0-13-5.82-13-13
	s5.82-13,13-13h119c7.18,0,13,5.82,13,13S385.55,222,378.37,222z M167,132.65c-21.51,0-39,17.5-39,39v151.51c0,7.17-5.83,13-13,13
	h-12c-7.17,0-13-5.83-13-13V66h218.37v66.65H167z"/>
</svg>
