<?xml version="1.0" encoding="utf-8"?>
<!-- Generator: Adobe Illustrator 16.0.0, SVG Export Plug-In . SVG Version: 6.00 Build 0)  -->
<!DOCTYPE svg PUBLIC "-//W3C//DTD SVG 1.1//EN" "http://www.w3.org/Graphics/SVG/1.1/DTD/svg11.dtd">
<svg version="1.1" id="Layer_1" xmlns="http://www.w3.org/2000/svg" xmlns:xlink="http://www.w3.org/1999/xlink" x="0px" y="0px"
	 width="512px" height="512px" viewBox="0 0 512 512" enable-background="new 0 0 512 512" xml:space="preserve">
<path fill="#231F20" d="M256,40.5C136.98,40.5,40.5,136.98,40.5,256c0,119.02,96.48,215.5,215.5,215.5
	c119.02,0,215.5-96.48,215.5-215.5C471.5,136.98,375.02,40.5,256,40.5z M369.1,291.96c0,22.58-18.369,40.95-40.949,40.95H310.56
	l-23.22,29.1c-2.47,3.101-6.21,4.9-10.17,4.9c-3.95,0-7.689-1.8-10.16-4.9l-23.22-29.1H187.5c-22.58,0-40.95-18.37-40.95-40.95
	v-89.01c0-22.58,18.37-40.95,40.95-40.95h140.65c22.58,0,40.949,18.37,40.949,40.95V291.96z M328.15,188H187.5
	c-8.25,0-14.95,6.7-14.95,14.95v89.01c0,8.24,6.7,14.95,14.95,14.95h62.55c3.95,0,7.7,1.8,10.16,4.89l16.96,21.26l16.97-21.26
	c2.46-3.09,6.2-4.89,10.16-4.89h23.851c8.25,0,14.949-6.71,14.949-14.95v-89.01C343.1,194.7,336.4,188,328.15,188z M214.95,260.45
	c-7.18,0-13-5.82-13-13c0-7.18,5.82-13,13-13c7.18,0,13,5.82,13,13C227.95,254.63,222.13,260.45,214.95,260.45z M257.83,260.45
	c-7.18,0-13-5.82-13-13c0-7.18,5.82-13,13-13c7.17,0,13,5.82,13,13C270.83,254.63,265,260.45,257.83,260.45z M300.7,260.45
	c-7.181,0-13-5.82-13-13c0-7.18,5.819-13,13-13c7.18,0,13,5.82,13,13C313.7,254.63,307.88,260.45,300.7,260.45z"/>
</svg>
