<?xml version="1.0" encoding="utf-8"?>
<!-- Generator: Adobe Illustrator 16.0.0, SVG Export Plug-In . SVG Version: 6.00 Build 0)  -->
<!DOCTYPE svg PUBLIC "-//W3C//DTD SVG 1.1//EN" "http://www.w3.org/Graphics/SVG/1.1/DTD/svg11.dtd">
<svg version="1.1" id="Layer_1" xmlns="http://www.w3.org/2000/svg" xmlns:xlink="http://www.w3.org/1999/xlink" x="0px" y="0px"
	 width="512px" height="512px" viewBox="0 0 512 512" enable-background="new 0 0 512 512" xml:space="preserve">
<g>
	<g>
		<path fill="#231F20" d="M212.5,103H57.868c-9.941,0-18,8.059-18,18s8.059,18,18,18H212.5c9.941,0,18-8.059,18-18
			S222.441,103,212.5,103L212.5,103z"/>
	</g>
	<g>
		<path fill="#231F20" d="M334.75,92.75c12.478,0,23.627,8.356,27.113,20.321l2.311,7.929l-2.311,7.929
			c-3.486,11.965-14.636,20.321-27.113,20.321c-15.577,0-28.25-12.673-28.25-28.25S319.173,92.75,334.75,92.75 M334.75,56.75
			c-35.484,0-64.25,28.766-64.25,64.25s28.766,64.25,64.25,64.25c29.233,0,53.89-19.53,61.676-46.25h57.707c9.941,0,18-8.059,18-18
			s-8.059-18-18-18h-57.707C388.64,76.28,363.983,56.75,334.75,56.75L334.75,56.75z"/>
	</g>
	<g>
		<path fill="#231F20" d="M454.133,237.125H319.501c-9.941,0-18,8.059-18,18s8.059,18,18,18h134.632c9.941,0,18-8.06,18-18
			S464.074,237.125,454.133,237.125L454.133,237.125z"/>
	</g>
	<g>
		<path fill="#231F20" d="M197.251,226.875c15.577,0,28.25,12.673,28.25,28.25c0,15.578-12.673,28.25-28.25,28.25
			c-12.478,0-23.626-8.356-27.113-20.321l-2.311-7.929l2.311-7.929C173.625,235.231,184.774,226.875,197.251,226.875
			 M197.251,190.875c-29.233,0-53.89,19.531-61.675,46.25H57.868c-9.941,0-18,8.059-18,18s8.059,18,18,18h77.708
			c7.786,26.72,32.442,46.25,61.675,46.25c35.484,0,64.25-28.766,64.25-64.25C261.502,219.64,232.736,190.875,197.251,190.875
			L197.251,190.875z"/>
	</g>
	<g>
		<path fill="#231F20" d="M166.5,371.25H57.868c-9.941,0-18,8.059-18,18c0,9.94,8.059,18,18,18H166.5c9.941,0,18-8.06,18-18
			C184.5,379.309,176.441,371.25,166.5,371.25L166.5,371.25z"/>
	</g>
	<g>
		<path fill="#231F20" d="M289.083,361c12.478,0,23.627,8.356,27.113,20.321l2.311,7.929l-2.311,7.929
			c-3.486,11.965-14.636,20.321-27.113,20.321c-15.577,0-28.25-12.673-28.25-28.25S273.506,361,289.083,361 M289.083,325
			c-35.484,0-64.25,28.766-64.25,64.25s28.766,64.25,64.25,64.25c29.233,0,53.89-19.53,61.676-46.25h103.374c9.941,0,18-8.06,18-18
			c0-9.941-8.059-18-18-18H350.759C342.973,344.53,318.316,325,289.083,325L289.083,325z"/>
	</g>
</g>
</svg>
