<?xml version="1.0" encoding="utf-8"?>
<!-- Generator: Adobe Illustrator 16.0.0, SVG Export Plug-In . SVG Version: 6.00 Build 0)  -->
<!DOCTYPE svg PUBLIC "-//W3C//DTD SVG 1.1//EN" "http://www.w3.org/Graphics/SVG/1.1/DTD/svg11.dtd">
<svg version="1.1" id="Layer_1" xmlns="http://www.w3.org/2000/svg" xmlns:xlink="http://www.w3.org/1999/xlink" x="0px" y="0px"
	 width="512px" height="512px" viewBox="0 0 512 512" enable-background="new 0 0 512 512" xml:space="preserve">
<path fill="#231F20" d="M460.95,211.18L263.88,60.84c-4.649-3.55-11.11-3.55-15.76,0L51.05,211.18c-5.71,4.36-6.81,12.51-2.45,18.22
	c4.35,5.71,12.51,6.81,18.22,2.45l23.85-18.19v201.16c0,21.51,17.49,39,39,39h252.66c21.51,0,39-17.49,39-39V213.66l23.85,18.19
	c2.36,1.8,5.13,2.67,7.88,2.67c3.91,0,7.78-1.77,10.341-5.12C467.76,223.69,466.66,215.54,460.95,211.18z M256,377.65
	c-52.2,0-94.67-42.471-94.67-94.67c0-7.181,5.82-13,13-13c7.18,0,13,5.819,13,13c0,37.869,30.81,68.67,68.67,68.67
	c37.86,0,68.67-30.801,68.67-68.67c0-7.181,5.82-13,13-13s13,5.819,13,13C350.67,335.18,308.2,377.65,256,377.65z"/>
</svg>
