<?xml version="1.0" encoding="utf-8"?>
<!-- Generator: Adobe Illustrator 16.0.0, SVG Export Plug-In . SVG Version: 6.00 Build 0)  -->
<!DOCTYPE svg PUBLIC "-//W3C//DTD SVG 1.1//EN" "http://www.w3.org/Graphics/SVG/1.1/DTD/svg11.dtd">
<svg version="1.1" id="Layer_1" xmlns="http://www.w3.org/2000/svg" xmlns:xlink="http://www.w3.org/1999/xlink" x="0px" y="0px"
	 width="512px" height="512px" viewBox="0 0 512 512" enable-background="new 0 0 512 512" xml:space="preserve">
<path fill="#231F20" d="M283.908,213.785c0-18.039-14.676-32.715-32.715-32.715c-18.039,0-32.715,14.676-32.715,32.715
	s14.676,32.715,32.715,32.715C269.232,246.5,283.908,231.824,283.908,213.785z"/>
<path fill="#231F20" d="M256.5,40.5C137.479,40.5,41,136.98,41,256c0,119.02,96.48,215.5,215.5,215.5S472,375.02,472,256
	C472,136.98,375.52,40.5,256.5,40.5z M174.645,346.832c0,7.18-5.82,13-13,13s-13-5.82-13-13c0-41.189,24.952-76.655,60.532-92.091
	c-10.322-10.586-16.699-25.037-16.699-40.956c0-32.375,26.339-58.715,58.715-58.715s58.715,26.339,58.715,58.715
	c0,16.613-6.947,31.625-18.074,42.316c5.208,2.467,10.232,5.38,15.011,8.758c5.862,4.146,7.255,12.258,3.11,18.12
	c-4.146,5.863-12.26,7.253-18.12,3.11c-12.574-8.891-27.395-13.59-42.857-13.59C207.991,272.5,174.645,305.846,174.645,346.832z
	 M336.311,359.832c-7.18,0-13-5.82-13-13c0-3.101-0.192-6.222-0.572-9.276c-0.886-7.125,4.171-13.619,11.296-14.505
	c7.126-0.896,13.619,4.171,14.505,11.296c0.512,4.116,0.771,8.316,0.771,12.485C349.311,354.012,343.49,359.832,336.311,359.832z
	 M353.525,288.527l-63.166,63.166c-2.538,2.538-5.865,3.808-9.192,3.808s-6.654-1.27-9.192-3.808l-28.167-28.167
	c-5.077-5.077-5.077-13.308,0-18.385c5.077-5.076,13.309-5.076,18.385,0l18.975,18.975l53.974-53.974
	c5.076-5.076,13.309-5.076,18.385,0C358.603,275.22,358.603,283.45,353.525,288.527z"/>
</svg>
