<?xml version="1.0" encoding="utf-8"?>
<!-- Generator: Adobe Illustrator 16.0.0, SVG Export Plug-In . SVG Version: 6.00 Build 0)  -->
<!DOCTYPE svg PUBLIC "-//W3C//DTD SVG 1.1//EN" "http://www.w3.org/Graphics/SVG/1.1/DTD/svg11.dtd">
<svg version="1.1" id="Layer_1" xmlns="http://www.w3.org/2000/svg" xmlns:xlink="http://www.w3.org/1999/xlink" x="0px" y="0px"
	 width="512px" height="512px" viewBox="0 0 512 512" enable-background="new 0 0 512 512" xml:space="preserve">
<g>
	<path fill="#231F20" d="M329.56,370.41v28.479c0,3.44-1.369,6.75-3.81,9.19l-59.99,59.99c-2.439,2.43-5.74,3.8-9.19,3.8h-1.14
		c-3.45,0-6.75-1.37-9.19-3.8l-59.99-59.99c-2.44-2.44-3.81-5.75-3.81-9.19V370.41c0-3.45,1.37-6.75,3.81-9.19l19.7-19.7
		c2.44-2.439,5.74-3.81,9.19-3.81h24.38c3.45,0,6.75,1.37,9.19,3.81l7.29,7.29l7.29-7.29c2.44-2.439,5.74-3.81,9.19-3.81h24.38
		c3.449,0,6.75,1.37,9.189,3.81l19.7,19.7C328.19,363.66,329.56,366.96,329.56,370.41z"/>
	<path fill="#231F20" d="M405.305,323.955c-19.627-11.671-63.642-44.626-78.644-55.953V215.62l13.335-36.118
		c0.532-1.441,0.805-2.966,0.805-4.502v-49.571c0-46.432-37.775-84.207-84.207-84.207h-1.188c-46.432,0-84.207,37.775-84.207,84.207
		V175c0,1.537,0.272,3.061,0.805,4.502l13.335,36.118v52.382c-15,11.326-59.01,44.278-78.644,55.953
		c-29.694,17.656-29.793,52.431-29.689,56.691v33.148c0,7.18,5.82,13,13,13s13-5.82,13-13v-33.333c0-0.188-0.004-0.377-0.012-0.564
		c-0.01-0.229-0.506-23.191,16.99-33.595c25.022-14.878,83.75-59.606,86.237-61.503c3.226-2.459,5.118-6.282,5.118-10.338v-61.165
		c0-1.537-0.272-3.061-0.805-4.502l-13.335-36.118v-47.248c0-32.096,26.111-58.207,58.207-58.207h1.188
		c32.096,0,58.207,26.111,58.207,58.207v47.248l-13.335,36.118c-0.532,1.441-0.805,2.966-0.805,4.502v61.165
		c0,4.056,1.893,7.879,5.118,10.338c2.487,1.896,61.216,46.625,86.237,61.503c17.486,10.397,17.016,32.731,16.99,33.595
		c-0.009,0.188-0.013,0.376-0.013,0.564v33.333c0,7.18,5.82,13,13,13s13-5.82,13-13v-33.148
		C435.098,376.386,434.998,341.611,405.305,323.955z"/>
</g>
</svg>
