<?xml version="1.0" encoding="utf-8"?>
<!-- Generator: Adobe Illustrator 16.0.0, SVG Export Plug-In . SVG Version: 6.00 Build 0)  -->
<!DOCTYPE svg PUBLIC "-//W3C//DTD SVG 1.1//EN" "http://www.w3.org/Graphics/SVG/1.1/DTD/svg11.dtd">
<svg version="1.1" id="Layer_1" xmlns="http://www.w3.org/2000/svg" xmlns:xlink="http://www.w3.org/1999/xlink" x="0px" y="0px"
	 width="512px" height="512px" viewBox="0 0 512 512" enable-background="new 0 0 512 512" xml:space="preserve">
<g>
	<path fill="#231F20" d="M471.57,362.39c-1.08-3.3-3.45-6.02-6.551-7.569c-0.27-0.13-19.21-9.54-43.89-21.42
		c-0.36-0.23-0.74-0.44-1.13-0.631c-0.45-0.22-0.9-0.409-1.36-0.569c-8.979-4.32-18.64-8.92-28.38-13.5
		c-4.34-2.04-8.37-4.021-12.26-5.94c-30.78-15.12-51.12-25.109-102.73-5.45c-7.17,2.73-13.569,5.131-19.279,7.261
		c-18.93,7.08-30.36,11.359-38.06,16.05c-10.26,6.25-15.03,14.3-15.03,25.34c0,20.24,19.54,29.91,37.69,30.33
		c0.1,0.01,0.21,0.01,0.31,0.01h62c7.18,0,13-5.819,13-13c0-7.18-5.82-13-13-13H241.07c-4.73-0.149-11.37-2.24-12.12-3.84
		c0,0-0.05-0.13-0.05-0.5c0-0.75,0.06-1.15,0.09-1.31c2.42-3.131,18.05-8.971,36.109-15.721c5.75-2.16,12.2-4.569,19.42-7.319
		c41.051-15.641,53.891-9.33,82.011,4.489c3.989,1.96,8.12,3.99,12.67,6.131c5.939,2.789,11.84,5.59,17.58,8.319l-24.37,49.601
		l-7.95-4.811c-3.27-1.97-7.229-2.42-10.85-1.21l-59.261,19.82c-10.939,3.5-42.74,12.51-59.45,12.51c-4.19,0-18.39-2.34-59.7-24.08
		c-26.28-13.82-53.28-30.05-69.42-39.75c-2.75-1.649-5.18-3.11-7.23-4.33c-9.76-5.83-18.35-11.03-24.56-15.74
		c-4.74-3.59-6.79-5.939-7.66-7.199c4.56-0.12,14.89,3.479,19.58,5.13l0.68,0.24c19.26,6.76,73.26,24.189,75.55,24.93
		c6.83,2.21,14.15-1.54,16.36-8.38c2.21-6.83-1.55-14.16-8.38-16.36c-0.56-0.18-55.97-18.07-74.92-24.72l-0.67-0.24
		c-7.41-2.6-15.82-5.56-23.95-6.34c-17.29-1.65-24.88,7.62-27.86,13.3c-3.5,6.67-6.98,20.1,9.14,35.021
		c7.83,7.25,19.25,14.27,33.38,22.689c2.02,1.21,4.43,2.65,7.15,4.29c58.38,35.08,116.05,67.54,142.51,67.54
		c24.25,0,65.71-13.22,67.47-13.78c0.05-0.01,0.1-0.029,0.149-0.05l53.631-17.93L413,455.09c2.05,1.24,4.38,1.87,6.73,1.87
		c1.189,0,2.39-0.16,3.56-0.5c3.479-0.99,6.38-3.38,8.02-6.59l39.5-77.5C472.39,369.27,472.66,365.68,471.57,362.39z M414.5,425.6
		l-19.76-11.949l25.47-51.83c8.43,4.09,15.81,7.699,21.46,10.47L414.5,425.6z"/>
	<path fill="#231F20" d="M187.09,308.04c69.76,0,126.5-56.75,126.5-126.5s-56.74-126.5-126.5-126.5
		c-69.75,0-126.49,56.75-126.49,126.5S117.34,308.04,187.09,308.04z M143.61,153.15c0-18.83,15.08-34.2,33.79-34.68v-10.01
		c0-7.18,5.82-13,13-13c7.18,0,13,5.82,13,13v10h9.1c7.18,0,13,5.82,13,13s-5.82,13-13,13h-34.2c-0.3,0-0.6,0.02-0.9,0.05
		c-4.37,0.45-7.79,4.15-7.79,8.64v6.19c0,4.5,3.42,8.19,7.79,8.65c0.3,0.02,0.6,0.04,0.9,0.04h24.2c0.3,0,0.6,0,0.9,0.01
		c18.71,0.48,33.79,15.86,33.79,34.68v6.2c0,18.83-15.08,34.2-33.79,34.68v10.36c0,7.18-5.82,13-13,13c-7.18,0-13-5.82-13-13v-10.35
		h-14.1c-7.18,0-13-5.82-13-13c0-7.18,5.82-13,13-13h39.2c0.3,0,0.6-0.02,0.9-0.04c4.37-0.46,7.79-4.16,7.79-8.65v-6.2
		c0-4.49-3.42-8.19-7.79-8.65c-0.3-0.02-0.6-0.04-0.9-0.04h-24.2c-0.3,0-0.6,0-0.9-0.01c-18.71-0.48-33.79-15.85-33.79-34.68V153.15
		z"/>
</g>
</svg>
