<?xml version="1.0" encoding="utf-8"?>
<!-- Generator: Adobe Illustrator 16.0.0, SVG Export Plug-In . SVG Version: 6.00 Build 0)  -->
<!DOCTYPE svg PUBLIC "-//W3C//DTD SVG 1.1//EN" "http://www.w3.org/Graphics/SVG/1.1/DTD/svg11.dtd">
<svg version="1.1" id="Layer_1" xmlns="http://www.w3.org/2000/svg" xmlns:xlink="http://www.w3.org/1999/xlink" x="0px" y="0px"
	 width="512px" height="512px" viewBox="0 0 512 512" enable-background="new 0 0 512 512" xml:space="preserve">
<path fill="#231F20" d="M249.24,196.81c14.46,0,26.229-11.77,26.229-26.24c0-14.47-11.77-26.24-26.229-26.24
	c-14.47,0-26.24,11.77-26.24,26.24C223,185.04,234.77,196.81,249.24,196.81z"/>
<path fill="#231F20" d="M167.23,283.48c-14.46,0-26.23,11.77-26.23,26.239c0,14.471,11.77,26.24,26.23,26.24
	c14.47,0,26.24-11.77,26.24-26.24C193.47,295.25,181.7,283.48,167.23,283.48z"/>
<path fill="#231F20" d="M344.19,283.48c-14.46,0-26.23,11.77-26.23,26.239c0,14.471,11.771,26.24,26.23,26.24
	c14.47,0,26.239-11.77,26.239-26.24C370.43,295.25,358.66,283.48,344.19,283.48z"/>
<path fill="#231F20" d="M256.5,40.5C137.48,40.5,41,136.98,41,256c0,119.02,96.48,215.5,215.5,215.5
	C375.52,471.5,472,375.02,472,256C472,136.98,375.52,40.5,256.5,40.5z M154.16,228.35c8.67-21.17,23.91-39.23,43.24-51.43
	c-0.25-2.09-0.4-4.2-0.4-6.35c0-28.8,23.43-52.24,52.24-52.24c28.8,0,52.229,23.44,52.229,52.24c0,28.8-23.43,52.24-52.229,52.24
	c-17.19,0-32.46-8.35-41.99-21.2c-12.87,9.2-23.02,21.92-29.03,36.59c-2.06,5.03-6.91,8.08-12.03,8.08c-1.64,0-3.31-0.31-4.92-0.97
	C154.62,242.59,151.44,235,154.16,228.35z M290.79,374.38C279.6,378.11,267.89,380,256,380c-24.33,0-47.86-8.07-67.02-22.8
	c-6.63,3.04-13.99,4.76-21.75,4.76c-28.8,0-52.23-23.44-52.23-52.24s23.43-52.239,52.23-52.239c28.81,0,52.24,23.439,52.24,52.239
	c0,11.32-3.63,21.8-9.78,30.37C223.35,349.12,239.44,354,256,354c9.1,0,18.04-1.44,26.57-4.29c6.81-2.27,14.17,1.42,16.439,8.23
	C301.28,364.75,297.6,372.11,290.79,374.38z M344.19,361.96c-28.801,0-52.23-23.44-52.23-52.24c0-27.08,20.71-49.41,47.13-51.989
	c-2.72-18.621-11.6-35.76-25.45-48.831c-5.22-4.93-5.46-13.16-0.529-18.38c4.93-5.22,13.149-5.46,18.37-0.53
	C351.63,209,363.77,234.6,365.72,262.14c18.09,8.221,30.71,26.45,30.71,47.58C396.43,338.52,373,361.96,344.19,361.96z"/>
</svg>
